<svg xmlns="http://www.w3.org/2000/svg" shape-rendering="geometricPrecision" text-rendering="geometricPrecision" image-rendering="optimizeQuality" fill-rule="evenodd" clip-rule="evenodd" height="50" width="50" viewBox="0 0 512 379.665" fill="white"><path fill-rule="nonzero" d="M153.764 119.045c-7.838.332-13.409 2.935-16.619 7.822-8.724 13.076 3.18 25.996 11.443 35.099 23.441 25.724 80.888 87.554 92.454 101.161 8.768 9.694 21.25 9.694 30.017 0 11.948-13.959 72.287-78.603 94.569-103.627 7.731-8.705 17.292-20.579 9.239-32.633-3.287-4.887-8.798-7.49-16.636-7.822H310.65V22.868C310.65 10.31 300.346 0 287.779 0h-63.544c-12.572 0-22.871 10.294-22.871 22.868v96.177h-47.6zM.764 249.22c-2.622-10.841 1.793-19.331 8.852-24.343a24.765 24.765 0 018.47-3.837c3.039-.738 6.211-.913 9.258-.477 8.585 1.232 16.409 6.775 19.028 17.617a668.79 668.79 0 014.56 20.164 1259.306 1259.306 0 013.611 17.721c4.696 23.707 8.168 38.568 16.924 45.976 9.269 7.843 26.798 10.549 60.388 10.549h254.297c31.012 0 47.192-2.965 55.706-10.661 8.206-7.418 11.414-21.904 15.564-44.131a1212.673 1212.673 0 013.628-18.808c1.371-6.788 2.877-13.766 4.586-20.81 2.619-10.839 10.438-16.377 19.023-17.617 3.02-.433 6.173-.256 9.212.474 3.071.739 5.998 2.042 8.519 3.838 7.05 5.006 11.457 13.474 8.855 24.293l-.011.047a517.342 517.342 0 00-4.181 18.987c-1.063 5.281-2.289 11.852-3.464 18.145l-.008.046c-6.124 32.802-11.141 55.308-27.956 71.112-16.565 15.573-42.513 22.16-89.473 22.16H131.857c-49.096 0-76.074-5.911-93.429-21.279-17.783-15.75-23.173-38.615-30.047-73.314-1.39-7.029-2.728-13.739-3.638-18.091-1.281-6.11-2.6-12.082-3.979-17.761z"/></svg>